<svg xmlns="http://www.w3.org/2000/svg"
     width="192" height="192"
     viewBox="0 0 192 192"
     shape-rendering="crispEdges">
  <rect x="48" y="24" width="12" height="12" fill="#00d4aa"/>
  <rect x="60" y="24" width="12" height="12" fill="#00d4aa"/>
  <rect x="72" y="24" width="12" height="12" fill="#00d4aa"/>
  <rect x="84" y="24" width="12" height="12" fill="#00d4aa"/>
  <rect x="96" y="24" width="12" height="12" fill="#00d4aa"/>
  <rect x="108" y="24" width="12" height="12" fill="#00d4aa"/>
  <rect x="120" y="24" width="12" height="12" fill="#00d4aa"/>
  <rect x="132" y="24" width="12" height="12" fill="#00d4aa"/>
  <rect x="36" y="36" width="12" height="12" fill="#00d4aa"/>
  <rect x="48" y="36" width="12" height="12" fill="#00d4aa"/>
  <rect x="60" y="36" width="12" height="12" fill="#00d4aa"/>
  <rect x="72" y="36" width="12" height="12" fill="#00d4aa"/>
  <rect x="84" y="36" width="12" height="12" fill="#00d4aa"/>
  <rect x="96" y="36" width="12" height="12" fill="#00d4aa"/>
  <rect x="108" y="36" width="12" height="12" fill="#00d4aa"/>
  <rect x="120" y="36" width="12" height="12" fill="#00d4aa"/>
  <rect x="132" y="36" width="12" height="12" fill="#00d4aa"/>
  <rect x="144" y="36" width="12" height="12" fill="#00d4aa"/>
  <rect x="36" y="48" width="12" height="12" fill="#00d4aa"/>
  <rect x="48" y="48" width="12" height="12" fill="#00d4aa"/>
  <rect x="72" y="48" width="12" height="12" fill="#0d1117"/>
  <rect x="84" y="48" width="12" height="12" fill="#0d1117"/>
  <rect x="120" y="48" width="12" height="12" fill="#0d1117"/>
  <rect x="132" y="48" width="12" height="12" fill="#0d1117"/>
  <rect x="156" y="48" width="12" height="12" fill="#00d4aa"/>
  <rect x="168" y="48" width="12" height="12" fill="#00d4aa"/>
  <rect x="36" y="60" width="12" height="12" fill="#00d4aa"/>
  <rect x="48" y="60" width="12" height="12" fill="#00d4aa"/>
  <rect x="72" y="60" width="12" height="12" fill="#0d1117"/>
  <rect x="84" y="60" width="12" height="12" fill="#40e0ff"/>
  <rect x="120" y="60" width="12" height="12" fill="#0d1117"/>
  <rect x="132" y="60" width="12" height="12" fill="#40e0ff"/>
  <rect x="156" y="60" width="12" height="12" fill="#00d4aa"/>
  <rect x="168" y="60" width="12" height="12" fill="#00d4aa"/>
  <rect x="36" y="72" width="12" height="12" fill="#00d4aa"/>
  <rect x="48" y="72" width="12" height="12" fill="#00d4aa"/>
  <rect x="60" y="72" width="12" height="12" fill="#00d4aa"/>
  <rect x="72" y="72" width="12" height="12" fill="#00d4aa"/>
  <rect x="84" y="72" width="12" height="12" fill="#00d4aa"/>
  <rect x="96" y="72" width="12" height="12" fill="#00d4aa"/>
  <rect x="108" y="72" width="12" height="12" fill="#00d4aa"/>
  <rect x="120" y="72" width="12" height="12" fill="#00d4aa"/>
  <rect x="132" y="72" width="12" height="12" fill="#00d4aa"/>
  <rect x="144" y="72" width="12" height="12" fill="#00d4aa"/>
  <rect x="36" y="84" width="12" height="12" fill="#00d4aa"/>
  <rect x="48" y="84" width="12" height="12" fill="#00d4aa"/>
  <rect x="60" y="84" width="12" height="12" fill="#00d4aa"/>
  <rect x="72" y="84" width="12" height="12" fill="#00d4aa"/>
  <rect x="84" y="84" width="12" height="12" fill="#00d4aa"/>
  <rect x="96" y="84" width="12" height="12" fill="#00d4aa"/>
  <rect x="108" y="84" width="12" height="12" fill="#00d4aa"/>
  <rect x="120" y="84" width="12" height="12" fill="#00d4aa"/>
  <rect x="132" y="84" width="12" height="12" fill="#00d4aa"/>
  <rect x="144" y="84" width="12" height="12" fill="#00d4aa"/>
  <rect x="24" y="96" width="12" height="12" fill="#00d4aa"/>
  <rect x="36" y="96" width="12" height="12" fill="#00d4aa"/>
  <rect x="48" y="96" width="12" height="12" fill="#00d4aa"/>
  <rect x="60" y="96" width="12" height="12" fill="#00d4aa"/>
  <rect x="72" y="96" width="12" height="12" fill="#00d4aa"/>
  <rect x="84" y="96" width="12" height="12" fill="#00d4aa"/>
  <rect x="96" y="96" width="12" height="12" fill="#00d4aa"/>
  <rect x="108" y="96" width="12" height="12" fill="#00d4aa"/>
  <rect x="120" y="96" width="12" height="12" fill="#00d4aa"/>
  <rect x="132" y="96" width="12" height="12" fill="#00d4aa"/>
  <rect x="144" y="96" width="12" height="12" fill="#00d4aa"/>
  <rect x="156" y="96" width="12" height="12" fill="#00d4aa"/>
  <rect x="24" y="108" width="12" height="12" fill="#00d4aa"/>
  <rect x="36" y="108" width="12" height="12" fill="#00d4aa"/>
  <rect x="72" y="108" width="12" height="12" fill="#0d1117"/>
  <rect x="84" y="108" width="12" height="12" fill="#0d1117"/>
  <rect x="96" y="108" width="12" height="12" fill="#0d1117"/>
  <rect x="108" y="108" width="12" height="12" fill="#0d1117"/>
  <rect x="120" y="108" width="12" height="12" fill="#0d1117"/>
  <rect x="132" y="108" width="12" height="12" fill="#0d1117"/>
  <rect x="156" y="108" width="12" height="12" fill="#00d4aa"/>
  <rect x="168" y="108" width="12" height="12" fill="#00d4aa"/>
  <rect x="24" y="120" width="12" height="12" fill="#00d4aa"/>
  <rect x="36" y="120" width="12" height="12" fill="#00d4aa"/>
  <rect x="72" y="120" width="12" height="12" fill="#0d1117"/>
  <rect x="84" y="120" width="12" height="12" fill="#00d4aa"/>
  <rect x="96" y="120" width="12" height="12" fill="#40e0ff"/>
  <rect x="108" y="120" width="12" height="12" fill="#0d1117"/>
  <rect x="120" y="120" width="12" height="12" fill="#00d4aa"/>
  <rect x="156" y="120" width="12" height="12" fill="#00d4aa"/>
  <rect x="168" y="120" width="12" height="12" fill="#00d4aa"/>
  <rect x="24" y="132" width="12" height="12" fill="#00d4aa"/>
  <rect x="36" y="132" width="12" height="12" fill="#00d4aa"/>
  <rect x="72" y="132" width="12" height="12" fill="#0d1117"/>
  <rect x="84" y="132" width="12" height="12" fill="#0d1117"/>
  <rect x="96" y="132" width="12" height="12" fill="#00d4aa"/>
  <rect x="108" y="132" width="12" height="12" fill="#0d1117"/>
  <rect x="120" y="132" width="12" height="12" fill="#0d1117"/>
  <rect x="156" y="132" width="12" height="12" fill="#00d4aa"/>
  <rect x="168" y="132" width="12" height="12" fill="#00d4aa"/>
  <rect x="24" y="144" width="12" height="12" fill="#00d4aa"/>
  <rect x="36" y="144" width="12" height="12" fill="#00d4aa"/>
  <rect x="48" y="144" width="12" height="12" fill="#00d4aa"/>
  <rect x="60" y="144" width="12" height="12" fill="#00d4aa"/>
  <rect x="72" y="144" width="12" height="12" fill="#00d4aa"/>
  <rect x="84" y="144" width="12" height="12" fill="#00d4aa"/>
  <rect x="96" y="144" width="12" height="12" fill="#00d4aa"/>
  <rect x="108" y="144" width="12" height="12" fill="#00d4aa"/>
  <rect x="120" y="144" width="12" height="12" fill="#00d4aa"/>
  <rect x="132" y="144" width="12" height="12" fill="#00d4aa"/>
  <rect x="144" y="144" width="12" height="12" fill="#00d4aa"/>
  <rect x="156" y="144" width="12" height="12" fill="#00d4aa"/>
  <rect x="48" y="156" width="12" height="12" fill="#00d4aa"/>
  <rect x="60" y="156" width="12" height="12" fill="#00d4aa"/>
  <rect x="72" y="156" width="12" height="12" fill="#00d4aa"/>
  <rect x="84" y="156" width="12" height="12" fill="#00d4aa"/>
  <rect x="108" y="156" width="12" height="12" fill="#00d4aa"/>
  <rect x="120" y="156" width="12" height="12" fill="#00d4aa"/>
  <rect x="132" y="156" width="12" height="12" fill="#00d4aa"/>
  <rect x="144" y="156" width="12" height="12" fill="#00d4aa"/>
  <rect x="48" y="168" width="12" height="12" fill="#00d4aa"/>
  <rect x="60" y="168" width="12" height="12" fill="#00d4aa"/>
  <rect x="72" y="168" width="12" height="12" fill="#00d4aa"/>
  <rect x="84" y="168" width="12" height="12" fill="#00d4aa"/>
  <rect x="108" y="168" width="12" height="12" fill="#00d4aa"/>
  <rect x="120" y="168" width="12" height="12" fill="#00d4aa"/>
  <rect x="132" y="168" width="12" height="12" fill="#00d4aa"/>
  <rect x="144" y="168" width="12" height="12" fill="#00d4aa"/>
</svg>
